<?xml version="1.0" standalone="no"?>
<!DOCTYPE svg PUBLIC "-//W3C//DTD SVG 20010904//EN"
 "http://www.w3.org/TR/2001/REC-SVG-20010904/DTD/svg10.dtd">
<svg version="1.0" xmlns="http://www.w3.org/2000/svg"
 width="1024.000000pt" height="1024.000000pt" viewBox="0 0 1024.000000 1024.000000"
 preserveAspectRatio="xMidYMid meet">
<metadata>
Created by potrace 1.11, written by Peter Selinger 2001-2013
</metadata>
<g transform="translate(0.000000,1024.000000) scale(0.100000,-0.100000)"
fill="#000000" stroke="none">
<path d="M4765 10234 c-528 -52 -855 -117 -1265 -254 -615 -204 -1165 -512
-1680 -939 -148 -122 -499 -473 -621 -621 -258 -311 -454 -605 -633 -952 -285
-550 -464 -1146 -543 -1803 -26 -216 -26 -874 0 -1090 114 -948 441 -1781 987
-2515 158 -212 276 -347 490 -560 399 -400 779 -679 1272 -934 550 -285 1146
-464 1803 -543 216 -26 874 -26 1090 0 948 114 1781 441 2515 987 212 158 347
276 560 490 324 323 549 608 773 982 319 530 555 1164 656 1768 59 347 66 440
66 870 0 430 -7 523 -66 870 -101 604 -337 1238 -656 1768 -224 374 -449 659
-773 982 -323 324 -608 549 -982 773 -530 319 -1164 555 -1768 656 -324 55
-427 63 -820 66 -201 1 -383 1 -405 -1z m535 -604 c449 -28 816 -98 1209 -229
953 -319 1708 -875 2293 -1692 356 -496 647 -1192 757 -1809 61 -340 87 -694
71 -957 -35 -568 -153 -1076 -365 -1575 -461 -1086 -1307 -1932 -2393 -2393
-199 -85 -527 -195 -713 -239 -413 -99 -874 -147 -1217 -126 -448 28 -817 97
-1211 229 -952 318 -1710 877 -2293 1692 -357 498 -647 1192 -757 1809 -61
340 -87 694 -71 958 28 448 97 817 229 1211 318 952 877 1710 1692 2293 508
364 1209 654 1839 762 184 31 379 54 545 65 190 12 204 12 385 1z"/>
<path d="M4840 7590 c-515 -53 -933 -242 -1298 -585 -579 -545 -845 -1489
-686 -2435 132 -785 532 -1379 1159 -1722 305 -167 598 -242 995 -255 635 -20
1147 154 1592 544 467 410 746 1048 787 1801 28 516 -68 1025 -274 1447 -105
216 -222 381 -400 563 -336 346 -750 555 -1235 627 -124 19 -516 28 -640 15z
m440 -760 c346 -36 615 -158 850 -386 250 -243 410 -576 475 -989 25 -159 30
-454 11 -619 -54 -464 -203 -804 -470 -1072 -241 -242 -508 -367 -866 -404
-481 -50 -899 89 -1210 400 -440 439 -608 1213 -419 1929 172 651 638 1075
1252 1140 116 12 266 12 377 1z"/>
</g>
</svg>
